<?xml version="1.0" standalone="no"?>
<!DOCTYPE svg PUBLIC "-//W3C//DTD SVG 20010904//EN"
 "http://www.w3.org/TR/2001/REC-SVG-20010904/DTD/svg10.dtd">
<svg version="1.0" xmlns="http://www.w3.org/2000/svg"
 width="779.000000pt" height="263.000000pt" viewBox="0 0 779.000000 263.000000"
 preserveAspectRatio="xMidYMid meet">
<metadata>
Created by potrace 1.16, written by Peter Selinger 2001-2019
</metadata>
<g transform="translate(0.000000,263.000000) scale(0.100000,-0.100000)"
fill="#000000" stroke="none">
<path d="M0 2311 c0 -246 3 -320 13 -324 10 -4 10 -6 0 -6 -7 -1 -13 -10 -13
-20 0 -11 6 -22 13 -24 10 -4 10 -6 0 -6 -9 -1 -13 -20 -12 -63 0 -53 2 -59
11 -40 12 24 23 28 33 12 11 -19 25 -10 25 15 0 15 -7 28 -17 32 -10 4 -24 13
-31 20 -11 11 -11 13 0 13 23 0 58 -30 58 -51 0 -22 18 -24 55 -7 34 15 32 28
-5 28 -21 0 -30 5 -30 16 0 11 -6 13 -19 9 -11 -3 -23 -1 -27 6 -5 9 5 10 37
5 24 -3 51 -2 59 4 11 7 -5 10 -52 10 -37 0 -70 5 -73 10 -3 6 -3 10 1 10 9 0
202 38 384 75 146 30 226 45 480 90 113 20 315 58 450 85 358 71 750 140 1270
225 242 40 958 157 1095 180 l90 14 -85 -3 c-47 -2 -267 -34 -490 -70 -843
-139 -952 -157 -1230 -205 -310 -54 -355 -62 -660 -122 -179 -35 -363 -68
-550 -99 -128 -21 -285 -51 -343 -65 -101 -24 -338 -62 -342 -55 -3 4 32 13
78 19 45 7 93 15 107 18 23 5 24 6 5 13 -27 12 -47 12 -41 1 7 -11 -71 -24
-86 -15 -6 4 -25 11 -42 15 -29 7 -28 7 12 8 31 1 41 -2 36 -11 -5 -8 -2 -9
10 -5 10 4 25 7 34 7 15 0 15 2 2 10 -11 7 -6 10 20 10 19 0 134 21 255 46
121 25 256 51 300 59 44 7 105 18 135 23 30 6 119 22 198 37 175 31 252 51
268 68 13 12 34 252 26 295 -3 13 -12 22 -22 22 -13 0 -19 -11 -24 -41 -4 -23
-13 -56 -21 -75 -11 -27 -20 -34 -42 -34 -15 0 -60 -7 -98 -15 -39 -9 -99 -20
-135 -26 -76 -11 -290 -48 -317 -54 -18 -4 -288 -59 -377 -77 -43 -8 -79 -2
-48 9 6 3 10 9 6 14 -3 5 -1 9 5 9 5 0 11 -5 13 -12 3 -9 23 -8 79 5 67 16
122 27 219 43 19 4 42 10 51 15 10 5 38 11 63 13 25 3 49 7 54 9 4 3 28 8 52
11 72 10 144 29 152 41 5 6 8 5 8 -3 0 -9 5 -10 19 -2 11 5 43 10 71 10 62 0
146 33 153 61 3 10 11 18 19 16 7 -2 10 -2 6 0 -20 11 -6 33 21 33 26 0 41 14
41 41 0 15 -48 11 -185 -16 -158 -30 -155 -30 -152 -2 l2 22 -512 3 -513 2 0
-319z m1233 -1 c-4 -4 -37 -12 -73 -18 -420 -75 -726 -131 -758 -139 -17 -4
-22 -1 -23 13 -1 14 -3 13 -9 -6 -6 -19 -8 -9 -9 38 -1 58 1 63 24 72 22 8
324 71 400 83 17 3 82 15 145 27 63 12 144 26 180 31 36 5 79 13 95 17 l30 9
3 -60 c2 -33 -1 -63 -5 -67z"/>
<path d="M1854 2585 c-9 -61 -1 -162 14 -177 12 -12 19 -11 392 53 58 10 267
45 464 78 247 41 364 65 375 75 14 15 7 16 -71 16 -47 0 -88 -4 -90 -10 -1 -5
-124 -30 -273 -55 -148 -26 -348 -59 -443 -76 -95 -16 -180 -29 -188 -29 -13
0 -15 14 -12 85 l3 85 -82 0 -82 0 -7 -45z"/>
<path d="M5820 2133 c-71 -6 -266 -24 -310 -28 -93 -10 -214 -45 -234 -68 -47
-56 -225 -255 -258 -288 -40 -39 -32 -37 -250 -70 -40 -6 -89 -14 -108 -19
-19 -5 -66 -11 -103 -15 l-69 -7 -20 -46 c-22 -49 -28 -174 -13 -280 l7 -52
-31 -6 c-17 -4 -36 -12 -42 -20 -14 -18 -3 -86 20 -116 32 -41 32 -56 1 -90
-16 -17 -28 -33 -26 -35 8 -9 34 12 58 47 23 33 32 39 55 35 16 -2 75 -12 133
-20 58 -9 108 -20 111 -23 3 -4 12 -28 19 -55 10 -36 17 -46 29 -43 41 12 101
9 118 -6 35 -30 62 -38 133 -38 82 0 136 22 169 69 19 27 27 30 76 30 30 0 59
2 64 5 5 3 12 -2 16 -12 6 -15 8 -15 15 4 8 21 50 40 50 23 0 -16 94 -9 136
10 l41 19 7 -76 c3 -42 12 -82 19 -88 6 -6 46 -16 87 -22 52 -8 79 -17 90 -30
27 -35 60 -44 162 -45 l100 -2 48 52 c55 60 90 141 90 209 0 61 -16 55 435
164 50 11 106 25 125 30 19 4 46 7 60 5 14 -1 31 -3 38 -4 6 0 12 -7 12 -15 0
-33 35 -57 102 -68 61 -10 68 -9 96 10 41 30 64 107 60 203 -2 59 0 77 14 91
30 30 36 168 7 168 -5 0 -9 8 -9 18 0 11 -9 44 -19 75 -11 32 -17 57 -13 57
14 1 -64 39 -80 40 -9 0 -39 5 -66 11 -43 9 -51 14 -59 42 -8 29 -13 33 -54
37 -40 4 -52 12 -107 71 -34 37 -87 83 -116 104 l-55 38 -163 8 c-174 10 -540
17 -598 12z m175 -40 c18 -10 17 -14 -10 -109 -15 -55 -34 -124 -42 -154 -13
-50 -34 -80 -55 -80 -11 0 -3 33 34 145 46 138 49 153 30 172 -14 14 -37 15
-177 10 -88 -4 -170 -9 -182 -13 -17 -5 -23 -2 -23 9 0 12 18 16 83 21 45 3
98 8 117 9 69 7 206 0 225 -10z m427 -41 c30 -64 37 -84 68 -197 12 -44 33
-112 46 -152 22 -69 27 -129 25 -299 -1 -50 -2 -51 -38 -62 -30 -9 -165 -35
-230 -45 -10 -2 -13 41 -16 173 -2 130 -7 189 -19 230 -10 30 -29 93 -42 140
-31 104 -62 197 -78 230 -7 14 -14 28 -16 33 -2 4 59 7 135 7 l138 -1 27 -57z
m139 37 c47 -10 63 -22 147 -103 53 -52 93 -98 90 -106 -3 -9 -18 2 -44 31
-56 62 -123 128 -148 144 -18 12 -77 19 -125 16 -15 -1 -13 -19 17 -127 19
-70 57 -152 77 -166 5 -4 53 -4 105 -1 52 4 117 7 144 7 l50 1 13 -50 c26
-101 10 -295 -25 -314 -22 -11 -271 -65 -276 -60 -6 6 -12 297 -6 297 39 -3
60 4 60 20 0 38 -50 57 -68 26 -13 -23 -17 -13 -82 221 -17 61 -40 122 -51
137 -10 15 -19 30 -19 33 0 9 87 5 141 -6z m-457 -44 c11 -22 32 -89 47 -150
22 -83 26 -111 16 -117 -18 -11 -30 -5 -32 18 -3 32 -36 178 -45 202 -12 27
-56 31 -64 5 -2 -10 -14 -51 -26 -92 -15 -50 -20 -87 -16 -113 6 -34 4 -38
-15 -38 -26 0 -25 6 19 165 17 61 33 123 37 138 5 24 10 28 33 25 20 -2 32
-13 46 -43z m-162 -5 c-2 -8 -18 -64 -35 -123 -24 -86 -35 -111 -52 -117 -12
-4 -97 -11 -191 -15 -93 -3 -199 -8 -236 -10 -38 -2 -68 -1 -68 3 0 26 56 220
68 235 17 19 47 23 57 7 14 -23 185 -4 185 20 0 13 51 17 170 16 88 -1 104 -3
102 -16z m744 -85 c80 -80 118 -136 103 -149 -2 -2 -50 -6 -105 -9 l-101 -6
-26 52 c-22 44 -67 180 -67 201 0 3 23 6 52 6 l51 0 93 -95z m-1290 49 c-14
-36 -56 -214 -56 -236 0 -13 -4 -28 -9 -33 -5 -6 -11 -28 -13 -50 -2 -32 -7
-41 -25 -43 -18 -3 -22 2 -25 30 -3 29 -7 33 -34 36 -18 2 -47 -1 -65 -6 -27
-6 -35 -14 -37 -35 -3 -23 -8 -27 -38 -27 -33 0 -34 1 -34 43 0 32 7 49 28 72
15 17 61 69 102 115 41 47 85 96 97 109 18 20 52 32 107 40 4 0 5 -6 2 -15z
m1642 -216 c44 -14 52 -22 27 -32 -22 -8 -18 -23 6 -29 36 -10 16 -32 -29 -33
-46 -1 -73 -19 -103 -69 l-19 -30 0 30 c0 17 -7 61 -15 99 -8 38 -12 73 -8 79
7 11 81 4 141 -15z m-1189 -58 c-10 -5 -66 -17 -125 -25 -60 -8 -167 -23 -239
-34 -71 -10 -133 -17 -137 -14 -5 2 -8 17 -8 34 0 25 4 29 28 30 15 1 81 4
147 8 225 11 351 12 334 1z m387 -36 c17 -40 33 -195 27 -264 -3 -45 -13 -69
-13 -33 0 11 -9 32 -20 46 -11 14 -20 32 -20 41 0 9 -12 18 -27 22 -16 4 -33
13 -40 22 -9 11 -24 13 -60 8 -144 -19 -212 -77 -303 -261 -85 -170 -77 -162
-195 -180 -138 -21 -135 -21 -135 18 0 30 4 35 52 55 41 17 49 25 40 34 -7 7
-33 13 -58 14 -56 2 -60 6 -39 37 25 38 29 121 11 215 -9 46 -18 88 -21 92 -3
5 -30 12 -60 15 -48 6 -55 10 -55 30 0 19 7 23 48 29 130 17 252 35 297 44 28
6 95 15 150 21 55 6 136 14 180 19 44 5 113 10 153 10 l73 2 15 -36z m872 -46
c20 -20 13 -27 -17 -15 -58 22 -113 -48 -132 -166 -6 -34 -11 -62 -12 -63 -1
-1 -17 -4 -36 -8 -29 -5 -32 -4 -26 12 4 9 15 46 25 82 31 116 64 176 81 148
6 -9 15 -8 41 4 40 20 60 22 76 6z m-2368 -53 c0 -25 -1 -26 -63 -19 -43 4
-71 2 -86 -6 -37 -19 -11 -30 72 -31 l76 -1 3 -36 c2 -26 9 -40 26 -48 19 -9
4 -11 -77 -9 -95 3 -126 -4 -105 -25 8 -7 224 -19 372 -20 l52 0 0 -40 0 -39
-142 4 c-79 3 -170 7 -203 10 -61 5 -93 -4 -81 -23 3 -5 59 -13 123 -16 245
-13 303 -18 303 -27 0 -12 -92 -11 -299 3 l-173 12 6 66 c3 36 9 111 12 168
l7 102 88 0 c89 0 89 0 89 -25z m262 -12 c10 -81 -22 -121 -97 -121 -29 -1
-29 0 -7 10 41 20 21 68 -28 68 -36 0 -51 -17 -39 -47 9 -23 7 -24 -29 -21
l-37 3 -3 73 -3 72 119 0 120 0 4 -37z m251 0 c-22 -53 -18 -107 12 -180 15
-39 25 -82 25 -114 l0 -51 -122 7 c-130 8 -142 10 -132 27 4 6 32 8 78 3 58
-5 75 -3 85 8 17 22 4 27 -88 34 l-81 6 0 37 0 37 80 -3 c65 -3 82 0 87 12 3
8 4 17 1 19 -2 2 -41 5 -86 6 l-82 2 -1 31 c0 17 -2 54 -3 81 -1 28 2 56 7 63
7 8 44 12 123 12 l113 0 -16 -37z m1851 18 c10 -11 19 -42 22 -77 l5 -59 -20
36 c-18 33 -47 56 -58 45 -2 -2 10 -19 26 -37 36 -39 46 -89 38 -200 -4 -57
-11 -86 -26 -108 -63 -88 -121 -20 -121 140 0 87 14 143 41 170 23 23 18 39
-6 19 -21 -17 -19 -3 6 36 34 55 65 67 93 35z m-930 -127 c32 -12 15 -24 -36
-24 -84 -1 -172 -49 -222 -123 -12 -18 -35 -60 -50 -94 -27 -57 -32 -62 -72
-72 -23 -6 -45 -11 -48 -11 -2 0 9 28 25 63 94 196 127 236 210 253 60 13 169
17 193 8z m-44 -75 c0 -7 10 -9 26 -6 39 7 54 -16 54 -82 0 -70 -19 -96 -41
-55 -23 44 -66 67 -133 71 -83 6 -95 10 -70 28 21 14 129 53 152 54 6 1 12 -4
12 -10z m-176 -126 c-97 -106 -112 -343 -28 -442 l26 -31 -45 0 c-28 0 -53 7
-67 18 -20 16 -20 19 -7 45 13 25 23 162 19 267 -1 14 8 44 19 67 10 24 19 47
19 52 0 23 43 61 70 61 l28 0 -34 -37z m159 11 c55 -37 77 -95 78 -203 0 -92
-13 -143 -54 -207 -39 -62 -62 -77 -112 -77 -53 0 -77 18 -108 83 -30 63 -31
235 -3 295 30 62 56 95 90 116 42 25 64 24 109 -7z m-282 -256 c-2 -67 -7
-133 -12 -145 -10 -26 -31 -28 -119 -10 -53 12 -55 13 -62 52 -4 22 -7 66 -7
97 l-1 57 35 7 c19 3 40 16 49 29 10 15 22 22 33 19 10 -3 29 -1 43 5 45 18
45 16 41 -111z m-551 72 l0 -40 -84 0 c-76 0 -87 -2 -100 -22 -14 -20 -16 -20
-22 -4 -4 10 -7 34 -8 54 l-1 37 72 0 c39 0 75 3 79 8 4 4 20 7 36 7 26 0 28
-3 28 -40z m-192 -96 c61 -4 112 -11 112 -16 0 -14 -35 -48 -65 -64 -43 -22
-72 -17 -115 22 -44 40 -68 39 -30 -1 29 -31 21 -41 -22 -26 -58 20 -95 71
-70 95 4 4 23 5 42 2 19 -3 86 -8 148 -12z"/>
<path d="M6184 2056 c-6 -15 71 -272 88 -293 11 -14 97 -16 163 -5 36 7 40 10
43 40 4 39 -31 156 -72 242 -11 24 -16 25 -114 28 -82 2 -103 0 -108 -12z
m245 -133 c23 -69 38 -130 34 -134 -13 -13 -147 -27 -164 -18 -9 4 -21 21 -27
36 -20 54 -72 222 -72 232 0 7 34 11 94 11 l93 0 42 -127z"/>
<path d="M5211 1881 c-81 -92 -92 -110 -85 -139 5 -18 11 -20 62 -15 116 10
112 7 139 112 13 52 22 100 19 107 -3 8 -19 14 -35 14 -25 0 -42 -14 -100 -79z"/>
<path d="M5857 1639 c-35 -21 -107 -96 -107 -112 0 -32 49 -32 108 -1 75 40
105 84 58 84 -16 0 -23 5 -22 16 1 21 -14 26 -37 13z"/>
<path d="M7004 1435 c-21 -51 -18 -143 6 -182 24 -41 43 -42 70 -3 33 47 29
160 -8 203 -25 28 -51 21 -68 -18z"/>
<path d="M5994 1197 c-38 -39 -57 -109 -51 -183 5 -72 26 -110 70 -132 65 -32
132 43 144 161 5 60 -22 136 -60 162 -31 21 -78 18 -103 -8z m104 -20 c31 -33
44 -83 36 -142 -13 -104 -65 -160 -122 -132 -66 31 -69 208 -5 279 23 25 65
23 91 -5z"/>
<path d="M1288 1851 c-7 -12 -16 -17 -23 -12 -17 14 -75 19 -74 7 1 -6 0 -27
-1 -46 l-2 -35 -12 34 c-17 49 -34 50 -53 3 -8 -22 -24 -42 -34 -45 -16 -4
-19 1 -19 29 0 24 -5 34 -15 34 -11 0 -15 -12 -15 -46 l0 -47 41 6 c23 3 45 9
48 14 3 5 30 9 60 9 41 1 58 6 68 20 11 15 16 16 22 6 13 -22 54 -10 71 20 11
21 12 32 4 45 -16 26 -51 28 -66 4z"/>
<path d="M2519 1726 c-2 -2 -44 -6 -94 -10 -49 -3 -139 -13 -200 -21 -60 -8
-112 -15 -114 -15 -2 0 -1 -6 2 -13 3 -8 1 -20 -4 -28 -7 -11 -9 -9 -9 8 0 33
-19 38 -30 9 -5 -14 -15 -26 -22 -26 -9 0 -9 3 0 12 7 7 12 16 12 20 0 13 -47
9 -62 -5 -7 -7 -37 -13 -68 -13 -62 0 -91 -5 -240 -40 -162 -38 -273 -76 -300
-101 -14 -13 -40 -34 -57 -46 -18 -12 -33 -25 -33 -29 0 -4 -34 -41 -75 -83
-41 -42 -75 -80 -75 -83 0 -4 -13 -21 -29 -38 -26 -28 -84 -53 -136 -57 -11
-1 -22 -5 -25 -8 -3 -4 -32 -16 -65 -27 -168 -58 -228 -89 -267 -137 -21 -26
-38 -58 -38 -71 0 -12 -4 -26 -10 -29 -5 -3 -10 -20 -10 -36 0 -16 -7 -41 -16
-55 -15 -22 -16 -36 -6 -112 9 -81 13 -89 44 -117 24 -20 37 -42 41 -67 8 -53
35 -104 64 -123 34 -22 167 -32 216 -16 21 7 54 32 77 58 l40 46 58 -6 c32 -4
75 -2 95 4 32 8 37 14 37 38 0 25 4 29 38 35 59 9 75 8 69 -9 -8 -20 11 -132
27 -164 22 -41 50 -69 82 -82 36 -13 154 -4 204 17 58 25 117 103 144 192 6
17 15 22 40 22 40 0 53 14 58 59 l3 33 215 79 c221 82 266 99 383 144 38 15
71 25 73 22 3 -2 15 -24 27 -48 27 -54 55 -69 132 -69 82 0 112 20 149 101 21
47 37 68 60 79 l31 15 -4 97 c-3 86 -1 97 16 106 12 7 25 7 36 1 23 -13 36 -4
53 37 8 19 19 34 24 34 6 0 10 11 10 25 0 14 -4 25 -10 25 -6 0 -10 39 -10 98
0 123 -17 176 -56 180 -26 4 -198 -13 -256 -25 -23 -4 -30 -1 -40 22 -12 26
-27 44 -93 115 -13 14 -29 37 -34 53 -8 21 -17 27 -39 27 -16 0 -31 -2 -33 -4z
m-21 -45 c3 -10 0 -12 -11 -8 -21 8 -187 -19 -201 -33 -7 -7 -2 -35 16 -93 15
-45 30 -99 33 -119 9 -49 26 -62 72 -54 70 13 132 37 138 55 3 9 -6 59 -19
111 -14 52 -23 96 -21 98 2 2 13 -4 23 -14 25 -23 55 -134 46 -169 -5 -19 -2
-25 9 -25 23 0 31 -53 31 -215 1 -92 -3 -147 -11 -161 -7 -13 -32 -26 -60 -34
-26 -8 -66 -21 -88 -30 -23 -10 -55 -21 -72 -24 l-31 -7 0 128 c-1 150 -29
336 -69 467 -16 49 -35 92 -42 94 -10 3 -12 0 -7 -14 22 -55 60 -196 66 -244
4 -30 12 -73 18 -95 14 -54 24 -260 14 -308 l-7 -39 -130 -43 c-169 -56 -298
-95 -312 -95 -7 0 -13 40 -17 108 -7 124 -33 314 -48 347 -8 18 -3 35 30 96
68 126 122 233 122 243 0 8 -54 4 -142 -10 -23 -4 -38 -3 -38 3 0 22 216 37
224 16 3 -7 1 -15 -4 -18 -5 -3 -25 -39 -44 -80 -20 -41 -52 -108 -71 -149
-44 -92 -45 -116 -7 -116 16 0 92 16 168 35 76 19 146 35 155 35 19 0 54 37
63 67 6 20 -36 203 -53 231 -3 6 -19 12 -34 14 -15 2 -27 7 -27 11 0 4 0 11 0
15 0 5 53 14 118 21 64 7 126 14 137 16 41 6 79 0 83 -14z m-3 -109 c9 -37 22
-79 27 -95 14 -37 1 -50 -71 -72 -71 -21 -87 -17 -96 27 -4 18 -18 69 -31 112
-13 44 -21 82 -18 85 10 11 150 27 160 19 7 -5 20 -39 29 -76z m-268 -43 c13
-41 25 -85 28 -99 8 -38 -14 -79 -44 -86 -14 -3 -45 -12 -67 -19 l-41 -13 -6
55 c-3 30 -8 58 -11 61 -4 3 -36 0 -72 -7 -37 -6 -68 -10 -71 -8 -6 7 75 165
90 174 20 13 131 30 152 22 14 -4 26 -28 42 -80z m-327 17 c0 -2 -16 -33 -36
-68 -20 -34 -51 -93 -70 -130 -38 -75 -35 -74 -169 -82 -90 -5 -328 -37 -335
-45 -3 -3 -25 -6 -50 -6 -25 0 -61 -3 -80 -7 l-35 -8 23 19 c12 11 22 24 22
30 0 6 44 55 98 109 91 93 112 107 177 119 11 2 74 14 140 28 186 37 315 54
315 41z m1126 -58 c-2 -18 -5 -34 -5 -36 -1 -1 -14 4 -31 13 -37 19 -40 19
-40 -4 0 -21 44 -61 66 -61 10 0 14 -16 14 -58 0 -32 5 -63 11 -69 14 -14 -26
-99 -49 -106 -9 -3 -24 -8 -33 -11 -13 -6 -17 1 -22 33 -8 63 -38 114 -78 133
-33 17 -40 17 -86 3 -55 -16 -108 -65 -119 -110 -13 -51 -20 -22 -22 81 -2 59
-7 114 -11 123 -8 15 2 20 77 39 152 38 185 39 151 5 -15 -15 14 -63 36 -63
20 0 20 54 0 70 -25 20 -18 26 43 37 102 18 104 18 98 -19z m-1218 -270 c6
-24 16 -79 22 -123 6 -44 13 -95 16 -112 6 -40 -12 -44 -21 -5 -8 36 -63 96
-100 110 -66 23 -100 22 -152 -8 -54 -31 -123 -104 -148 -157 -12 -24 -23 -33
-40 -33 -24 0 -25 3 -25 65 0 61 -2 65 -28 79 -39 20 -36 44 7 65 50 26 241
96 331 121 41 12 79 26 85 31 22 21 43 9 53 -33z m-143 25 c-129 -32 -358
-128 -404 -170 -19 -17 -50 -34 -68 -38 -18 -3 -33 -11 -33 -16 0 -6 -9 -8
-20 -4 -10 3 -29 -1 -42 -9 -16 -10 -65 -16 -168 -21 -80 -3 -159 -8 -175 -10
-22 -4 -35 1 -48 15 -10 12 -22 18 -27 15 -6 -3 -10 -3 -10 2 0 8 3 10 137 67
85 36 243 89 303 101 58 12 22 -10 -67 -40 -49 -17 -83 -34 -83 -42 0 -15 30
-10 87 14 44 18 93 17 93 -2 0 -16 12 -20 24 -8 3 4 12 8 19 9 16 3 206 72
218 79 15 10 10 25 -8 26 -29 2 55 17 137 24 41 4 77 9 79 11 2 2 20 3 40 3
22 -1 28 -3 16 -6z m1182 -124 c49 -75 42 -210 -17 -302 -31 -49 -69 -68 -99
-50 -9 5 -26 29 -39 54 -21 39 -23 54 -19 129 5 95 17 130 61 178 43 46 78 44
113 -9z m-1134 -51 c53 -28 90 -79 121 -167 19 -55 6 -52 -17 4 -11 25 -23 45
-28 45 -13 0 -11 -12 10 -61 10 -24 25 -71 32 -104 7 -33 19 -65 27 -71 12 -8
13 -26 7 -87 -3 -43 -10 -77 -13 -77 -4 0 -16 -3 -28 -6 -19 -5 -20 -1 -20 93
-1 96 -7 123 -47 193 -12 20 -58 115 -76 154 -6 14 53 -4 65 -19 13 -17 24 -9
24 15 0 30 -124 41 -172 16 -30 -16 -38 -7 -13 14 14 11 21 40 11 40 -11 0
-97 -98 -108 -122 -7 -16 -21 -28 -31 -28 -16 0 -16 3 3 40 52 102 180 167
253 128z m942 -135 c0 -70 4 -97 21 -130 19 -38 19 -43 5 -43 -40 0 -60 14
-80 56 -21 40 -21 46 -7 66 22 31 20 57 -5 66 -21 8 -20 9 11 40 49 49 55 43
55 -55z m-939 -95 c13 -6 24 -19 24 -29 0 -10 7 -22 17 -27 20 -12 35 -106 27
-177 -7 -65 -25 -135 -34 -135 -4 0 -11 -15 -14 -33 -11 -57 -103 -127 -169
-127 -40 0 -94 61 -107 123 -21 91 -9 201 29 279 34 68 80 124 116 139 23 9
75 3 111 -13z m-184 -22 c-16 -19 -45 -65 -63 -102 -33 -66 -34 -73 -33 -184
0 -128 13 -173 61 -209 l28 -20 -28 -1 c-75 -1 -128 55 -146 155 -14 74 -6
106 32 131 26 18 38 39 67 120 19 55 35 103 35 107 0 8 50 34 69 36 4 1 -5
-14 -22 -33z m-528 -33 c-4 -21 -7 -39 -8 -39 0 -1 -20 -4 -44 -7 -32 -4 -45
-2 -49 9 -4 11 -21 13 -87 8 -44 -4 -82 -11 -84 -15 -7 -16 -62 -10 -62 7 0
43 18 54 93 55 59 1 173 10 235 17 10 2 11 -8 6 -35z m88 -95 c8 -13 18 -35
21 -50 4 -15 14 -33 22 -42 8 -8 19 -25 24 -38 9 -23 8 -23 -47 -21 -64 2 -82
16 -92 70 -5 32 -2 43 19 70 31 38 35 39 53 11z m-207 -185 c-35 -85 -17 -121
38 -78 19 14 37 35 40 45 7 29 -17 25 -33 -4 -11 -22 -47 -48 -38 -29 2 5 10
25 18 46 11 30 19 37 42 37 15 0 28 -5 28 -11 0 -7 7 -17 16 -23 14 -10 10
-17 -30 -54 -86 -80 -157 -67 -192 35 -8 21 -14 41 -14 46 0 4 30 7 66 7 59 0
65 -2 59 -17z"/>
<path d="M2744 1083 c-44 -44 -58 -155 -28 -219 14 -29 22 -34 49 -34 51 0 79
45 83 135 2 57 -1 76 -17 103 -23 36 -59 43 -87 15z m70 -25 c21 -30 21 -135
0 -176 -11 -23 -23 -32 -40 -32 -46 0 -71 74 -51 154 18 73 60 98 91 54z"/>
<path d="M1578 740 c-102 -78 -108 -296 -9 -324 79 -23 161 82 161 207 0 97
-88 165 -152 117z m94 -27 c8 -10 21 -33 28 -51 25 -63 -15 -188 -69 -216 -40
-21 -53 -20 -82 4 -19 17 -24 33 -27 84 -5 76 9 124 48 166 32 35 78 40 102
13z"/>
<path d="M5580 540 c-484 -23 -1008 -52 -1235 -71 -576 -46 -1528 -138 -1940
-189 -132 -16 -312 -36 -400 -45 -157 -16 -627 -72 -1020 -120 -110 -14 -256
-32 -325 -40 -246 -29 -456 -55 -505 -64 l-50 -9 47 -1 c25 0 106 6 180 14
148 17 879 107 1058 130 171 22 430 52 560 65 63 6 261 29 440 50 471 57 1177
127 1855 185 210 18 736 49 1185 70 366 17 1201 20 1525 5 202 -10 709 -52
798 -66 23 -4 37 -3 37 4 0 16 -190 37 -615 68 -247 18 -1306 27 -1595 14z"/>
</g>
</svg>
